<?xml version="1.0" standalone="no"?>
<!DOCTYPE svg PUBLIC "-//W3C//DTD SVG 20010904//EN"
 "http://www.w3.org/TR/2001/REC-SVG-20010904/DTD/svg10.dtd">
<svg version="1.0" xmlns="http://www.w3.org/2000/svg"
 width="1170.000000pt" height="1587.000000pt" viewBox="0 0 1170.000000 1587.000000"
 preserveAspectRatio="xMidYMid meet">

<g transform="translate(0.000000,1587.000000) scale(0.100000,-0.100000)"
fill="#000000" stroke="none">
<path d="M0 15765 l0 -105 1633 0 c1545 -1 1630 -2 1600 -18 -18 -9 -32 -19
-31 -22 3 -30 -28 -93 -62 -124 -37 -34 -50 -56 -34 -56 11 0 144 111 179 149
18 20 36 34 39 31 5 -6 -27 -54 -134 -200 -56 -77 -190 -318 -190 -343 0 -4
-18 -34 -40 -68 -22 -34 -40 -68 -40 -74 0 -7 -13 -29 -30 -50 -16 -20 -27
-41 -24 -46 13 -22 13 -79 0 -86 -18 -10 -73 -111 -97 -175 -9 -26 -31 -66
-49 -88 -17 -21 -32 -50 -33 -62 -2 -22 -43 -132 -57 -153 -4 -5 -6 -23 -5
-40 1 -16 3 -42 3 -57 1 -18 8 -28 17 -28 8 0 15 -7 15 -15 0 -8 5 -15 10 -15
6 0 10 -9 10 -20 0 -11 -3 -20 -7 -20 -5 0 -9 -18 -11 -39 -2 -39 16 -60 41
-44 7 4 8 0 2 -13 -4 -10 -7 -33 -6 -51 1 -17 -5 -51 -14 -75 -19 -54 -19 -69
-1 -62 18 7 29 -26 20 -60 -4 -17 -2 -26 6 -26 9 0 11 -10 7 -30 -7 -33 3 -39
23 -15 16 19 37 4 24 -16 -10 -17 -6 -81 7 -93 5 -6 9 -22 9 -36 0 -15 10 -35
21 -46 19 -17 21 -27 17 -96 -3 -53 -1 -78 6 -78 15 0 51 -80 48 -107 -2 -13
5 -37 15 -55 9 -18 16 -40 15 -49 -2 -9 3 -19 11 -22 9 -3 14 -23 15 -54 1
-27 12 -73 23 -103 20 -49 47 -130 96 -287 9 -29 13 -56 9 -60 -4 -4 -22 8
-39 28 -55 61 -103 91 -154 96 -29 2 -49 -1 -54 -8 -4 -7 -21 -12 -38 -12 -17
0 -31 -4 -31 -9 0 -4 -15 -25 -34 -45 -31 -36 -38 -54 -53 -143 -3 -19 -8 -37
-12 -40 -16 -12 -30 -64 -36 -131 -7 -77 -20 -140 -35 -174 -5 -11 -11 -41
-15 -67 -3 -26 -10 -50 -15 -53 -23 -14 -31 -86 -19 -187 6 -57 12 -114 14
-128 4 -39 4 -40 15 -40 5 0 14 18 20 40 6 21 17 46 26 55 8 8 12 15 7 15 -4
0 -1 6 8 13 9 7 27 35 39 62 12 28 27 61 33 75 6 14 16 32 23 40 6 8 17 36 24
62 7 26 18 49 26 52 8 3 14 15 14 26 0 11 5 20 10 20 6 0 10 7 10 15 0 16 25
11 52 -12 18 -16 37 -84 40 -145 1 -21 8 -40 15 -42 19 -8 16 -26 -4 -33 -71
-25 -97 -79 -99 -203 -4 -213 -26 -290 -81 -290 -30 0 -52 -47 -44 -95 5 -26
19 -44 65 -79 33 -25 64 -47 70 -47 16 -2 47 -5 76 -7 34 -3 87 -51 96 -87 4
-16 11 -35 16 -42 26 -32 45 -82 35 -92 -5 -5 -10 -43 -11 -83 -1 -67 2 -77
29 -113 60 -78 76 -120 78 -197 1 -53 -3 -83 -16 -107 -9 -19 -14 -38 -10 -42
5 -4 34 -11 67 -16 55 -8 59 -10 82 -51 16 -29 26 -65 29 -110 7 -95 16 -155
26 -168 5 -6 18 -55 28 -110 11 -54 30 -130 41 -169 11 -38 25 -92 30 -120 13
-65 78 -235 120 -315 11 -20 34 -74 52 -120 31 -82 33 -91 33 -230 1 -80 5
-161 9 -180 15 -63 96 -207 141 -252 67 -66 68 -67 82 -49 12 15 14 15 26 0 6
-9 18 -14 25 -12 7 3 10 -1 6 -11 -7 -19 12 -22 20 -3 3 6 4 3 3 -8 -2 -18 3
-20 41 -17 37 2 44 -1 54 -23 6 -14 17 -24 25 -21 7 3 16 -1 20 -8 5 -8 17
-15 28 -17 11 -2 22 -15 25 -29 5 -20 12 -25 39 -25 21 -1 36 -7 43 -19 6 -10
19 -27 29 -37 11 -11 14 -19 7 -19 -6 0 -2 -8 9 -17 11 -10 23 -26 26 -37 6
-14 10 -16 21 -7 10 9 15 8 20 -4 3 -8 14 -15 23 -15 10 0 27 -9 36 -21 10
-11 25 -18 33 -15 10 4 14 0 12 -11 -2 -10 2 -18 7 -18 6 0 19 -6 30 -13 18
-12 17 -12 -12 -7 -21 4 -33 3 -33 -4 0 -6 5 -11 10 -11 16 0 50 -38 50 -56 0
-12 6 -15 26 -10 17 5 23 3 19 -4 -7 -12 45 -71 57 -64 4 3 8 1 8 -4 0 -6 9
-8 20 -5 13 3 22 -1 26 -12 5 -13 14 -15 45 -10 27 5 45 2 65 -12 15 -10 38
-16 50 -15 13 2 31 -6 42 -18 18 -19 21 -20 35 -6 9 9 20 16 25 16 17 0 20 24
5 47 -31 47 27 60 71 17 14 -15 26 -23 26 -17 0 5 26 10 58 12 31 1 66 3 77 4
11 0 26 7 33 14 7 7 22 13 33 13 10 0 19 7 19 15 0 8 5 15 10 15 6 0 10 7 10
16 0 11 6 14 23 8 12 -4 30 -7 40 -6 9 0 41 -10 70 -22 28 -13 82 -27 119 -30
47 -5 72 -13 80 -25 12 -17 83 -32 206 -45 25 -2 53 -13 66 -25 19 -18 28 -19
76 -12 30 5 60 5 65 1 6 -5 35 -9 65 -11 63 -3 78 -8 59 -20 -11 -7 -10 -9 4
-9 10 0 20 6 23 14 5 12 44 11 44 -1 0 -22 -86 -117 -134 -148 -14 -10 -26
-23 -26 -29 0 -13 -20 -33 -82 -79 -20 -16 -53 -43 -72 -62 -20 -19 -73 -59
-119 -91 -82 -57 -82 -57 -177 -65 -154 -13 -261 -11 -294 6 -15 8 -39 17 -53
20 -14 2 -31 9 -39 16 -30 24 -23 1 11 -39 35 -40 173 -132 199 -132 7 0 30
-11 50 -25 20 -14 43 -25 49 -25 7 0 50 18 95 40 86 43 134 50 169 25 19 -13
30 -61 12 -49 -9 5 -69 -28 -69 -38 0 -5 2 -8 4 -8 11 0 166 65 211 88 28 14
55 27 62 28 40 7 223 158 223 184 0 4 28 37 63 72 59 59 142 173 167 229 6 13
26 49 45 79 58 94 75 129 66 135 -8 5 -79 -3 -91 -10 -3 -2 -32 1 -65 7 -42 7
-76 6 -113 -2 -46 -10 -56 -10 -72 5 -17 15 -19 15 -32 -4 -8 -12 -18 -18 -21
-15 -6 6 -27 9 -152 18 -27 2 -69 0 -92 -5 -33 -7 -51 -5 -88 11 -26 11 -50
18 -54 15 -11 -6 -81 14 -109 33 -14 9 -34 18 -46 19 -11 2 -35 12 -54 23 -21
13 -42 18 -57 14 -20 -5 -25 -1 -31 20 -3 14 -10 24 -14 21 -16 -10 -38 7 -70
52 -18 25 -46 49 -61 55 -16 5 -29 16 -29 23 0 7 -9 24 -21 39 -17 21 -19 29
-9 41 9 11 9 15 1 15 -6 0 -20 9 -31 20 -12 12 -25 18 -30 15 -5 -3 -17 6 -26
20 -9 14 -22 24 -28 22 -7 -3 -10 8 -8 33 3 33 1 39 -20 45 -12 4 -30 13 -38
20 -8 7 -27 15 -43 19 -18 4 -27 13 -27 26 0 11 -7 20 -15 20 -8 0 -15 5 -15
10 0 6 -20 10 -44 10 -25 0 -47 4 -50 9 -3 4 -41 17 -85 27 -59 14 -77 22 -73
33 3 9 1 12 -5 8 -20 -12 -44 4 -38 24 5 14 -2 28 -22 47 -16 15 -32 35 -36
45 -9 23 -37 33 -47 17 -5 -8 -9 -9 -14 -1 -4 6 -2 11 3 11 6 0 11 5 11 10 0
21 -20 9 -26 -15 -8 -33 -16 -32 -34 8 -11 23 -15 27 -18 15 -2 -10 -8 -18
-13 -18 -13 0 -11 58 2 62 17 6 -10 55 -33 62 -16 4 -19 10 -14 30 7 28 -11
46 -25 25 -9 -14 -11 -10 -13 26 -1 17 -8 20 -54 20 -49 0 -56 3 -82 35 -16
19 -30 41 -30 48 0 6 -4 12 -10 12 -5 0 -10 7 -10 15 0 8 -7 15 -16 15 -12 0
-15 6 -10 23 7 28 -11 54 -38 59 -25 4 -23 22 4 26 31 5 24 22 -9 22 -24 0
-31 5 -36 30 -4 16 -15 32 -26 35 -11 4 -17 10 -14 15 3 5 -4 14 -15 20 -26
14 -28 94 -3 122 15 17 15 18 -6 18 -21 0 -23 4 -19 50 2 34 -1 49 -8 46 -12
-5 -34 12 -34 26 0 5 9 4 20 -2 11 -6 20 -7 20 -3 0 4 5 0 11 -10 6 -9 14 -15
20 -12 5 4 9 1 9 -6 0 -7 2 -10 5 -7 3 3 0 18 -6 34 -14 35 -13 72 2 90 9 11
4 14 -30 14 -26 0 -40 4 -36 10 3 6 2 10 -3 10 -5 0 -12 9 -15 20 -3 11 -13
20 -22 20 -16 0 -54 36 -55 53 0 4 7 7 16 7 9 0 14 7 12 18 -3 12 -12 16 -31
14 -23 -2 -27 1 -27 22 0 29 15 43 24 21 3 -8 10 -15 17 -15 7 0 10 22 9 63
-3 85 2 103 10 37 l7 -55 1 65 c2 72 -6 113 -19 104 -5 -3 -9 2 -9 11 0 9 5
13 10 10 11 -7 41 55 34 67 -3 5 6 12 20 18 14 5 26 14 26 20 0 19 18 10 23
-11 4 -15 11 -20 22 -15 9 3 23 6 31 6 18 0 18 31 0 56 -14 18 -15 18 -21 2
-11 -27 -35 -22 -35 7 0 18 -4 23 -15 19 -25 -10 -18 41 9 70 13 15 28 26 34
26 6 0 17 10 23 22 11 21 12 21 25 4 8 -12 19 -16 30 -12 16 6 15 8 -4 26 -12
11 -26 20 -32 20 -6 0 -20 5 -31 10 -18 10 -19 12 -2 28 16 16 16 17 -5 20
-22 3 -32 22 -12 22 6 0 10 7 10 15 0 8 -4 15 -10 15 -5 0 -10 -5 -10 -11 0
-6 -6 -16 -13 -23 -10 -11 -15 -11 -25 0 -16 18 -15 27 3 20 8 -3 15 -2 15 3
0 5 -9 11 -20 14 -23 6 -39 39 -22 45 7 2 12 13 13 25 1 20 2 20 8 -3 l7 -25
8 24 c6 18 10 20 17 10 6 -11 11 -11 20 -2 9 9 9 16 -2 29 -7 9 -16 37 -20 63
l-6 46 -2 -42 c0 -24 -5 -43 -10 -43 -18 0 -66 71 -53 79 20 12 3 77 -24 92
-16 8 -22 18 -19 30 7 22 -27 42 -67 41 -22 0 -28 4 -28 21 0 12 -7 31 -15 41
-10 13 -15 44 -15 88 0 37 -4 68 -8 68 -5 0 -15 23 -22 50 -14 52 -40 69 -40
26 0 -14 -4 -28 -10 -31 -5 -3 -10 -1 -10 4 0 6 -6 11 -14 11 -22 0 -27 52 -7
75 20 22 36 59 22 51 -5 -3 -12 6 -15 20 -8 30 -29 54 -47 54 -8 0 -9 10 -5
31 3 17 6 49 6 71 0 24 4 37 10 33 5 -3 10 0 10 8 0 8 7 20 15 27 10 8 12 18
6 29 -5 9 -11 33 -15 54 -4 21 -11 35 -17 32 -5 -4 -9 3 -9 14 0 12 -5 21 -11
21 -8 0 -10 17 -6 55 4 43 2 59 -13 77 -9 13 -19 44 -21 70 -3 39 -1 48 15 52
19 5 17 33 -3 29 -6 -2 -11 2 -11 7 0 6 9 10 20 10 14 0 20 -7 20 -22 0 -12 3
-18 7 -14 4 4 8 14 8 22 0 7 5 14 10 14 6 0 10 -9 10 -19 0 -11 3 -23 7 -27 5
-4 8 2 8 14 0 29 11 53 21 46 5 -3 9 4 9 15 0 12 7 21 15 21 8 0 15 -4 15 -10
0 -5 9 -10 20 -10 11 0 47 -18 79 -40 32 -22 68 -40 79 -40 12 0 25 -6 29 -12
7 -12 47 -38 57 -38 2 0 7 11 10 25 4 14 13 25 21 25 8 0 15 5 15 10 0 17 -27
65 -44 79 -9 8 -16 25 -16 40 0 20 -2 23 -10 11 -8 -13 -10 -12 -10 3 0 9 -6
17 -12 17 -20 1 34 29 55 30 11 0 21 -9 24 -19 4 -16 8 -17 18 -8 11 10 9 16
-12 35 -29 25 -25 23 -73 26 -41 3 -80 32 -80 58 0 32 -18 19 -27 -19 -9 -36
-11 -38 -45 -36 -20 0 -65 15 -99 32 -35 17 -72 31 -82 31 -10 0 -28 11 -41
23 -13 13 -49 34 -79 46 -59 24 -93 53 -82 70 8 13 50 14 73 2 28 -15 81 -20
85 -8 2 6 26 9 58 8 52 -1 55 0 68 31 8 17 14 51 14 74 0 26 6 45 13 48 7 3
15 26 19 53 10 76 13 87 33 109 23 25 46 89 38 109 -3 9 -12 12 -23 9 -14 -5
-15 -4 -4 4 12 9 12 13 2 26 -14 16 -9 20 22 16 14 -1 18 4 15 22 -2 18 -10
24 -35 26 -21 2 -33 9 -33 18 0 8 5 14 12 14 6 0 9 3 5 6 -3 4 0 18 7 33 13
28 14 75 1 105 -6 13 -3 23 12 35 15 12 20 27 19 63 -1 39 3 49 21 59 14 8 23
22 23 36 0 13 4 23 10 23 5 0 7 7 4 15 -5 11 1 15 18 15 20 0 27 7 36 38 6 20
13 46 15 57 2 13 10 19 23 18 16 -2 24 6 33 37 6 21 19 46 28 55 9 9 19 31 22
48 5 23 13 33 29 35 16 3 22 10 22 29 0 30 20 27 35 -5 14 -32 25 -27 25 12 0
24 -5 36 -17 39 -11 3 -7 5 10 6 28 1 28 2 27 54 -3 86 -1 107 11 107 16 0 48
42 49 63 0 9 11 23 25 29 26 12 31 23 15 33 -15 9 -13 85 3 85 7 0 23 14 35
30 13 17 27 30 33 30 5 0 19 8 30 18 10 10 35 23 53 29 46 14 157 6 178 -13
12 -12 36 -15 95 -13 43 2 88 0 99 -4 12 -4 43 -3 68 3 37 8 51 7 69 -4 13 -9
39 -14 64 -12 47 4 103 34 84 45 -7 5 -5 14 10 29 l20 22 28 -27 c15 -16 30
-37 34 -47 5 -14 11 -16 18 -9 7 7 7 17 -2 31 -18 28 4 53 45 52 49 -1 99 11
119 28 12 11 17 12 17 2 0 -7 7 -10 16 -6 24 9 47 -13 33 -31 -23 -26 2 -27
27 0 14 15 29 27 34 27 6 0 10 7 10 15 0 8 9 23 20 32 11 10 20 23 20 30 0 7
8 13 18 13 20 0 45 24 55 53 4 10 26 26 49 36 24 10 52 28 62 40 11 11 27 21
38 21 10 0 18 7 18 15 0 8 5 15 10 15 6 0 10 -4 10 -10 0 -5 7 -10 15 -10 8 0
15 9 15 20 0 21 24 28 35 10 3 -5 15 -10 26 -10 17 0 18 3 7 21 -11 18 -10 23
10 39 14 12 20 25 16 37 -4 13 -3 14 4 5 8 -12 13 -12 31 0 18 11 23 11 31 -2
8 -12 11 -12 28 3 10 9 24 17 30 17 7 0 12 4 12 8 0 12 74 36 91 30 8 -3 22
-1 32 4 13 7 27 -1 61 -37 25 -25 46 -55 48 -68 3 -22 48 -39 48 -18 0 19 46
12 72 -11 15 -13 28 -32 30 -42 2 -12 21 -26 54 -38 28 -11 75 -39 105 -64 53
-43 69 -52 69 -36 0 4 18 7 39 7 28 0 47 -7 69 -27 16 -14 40 -32 53 -38 13
-7 28 -19 32 -27 5 -7 13 -10 19 -7 6 4 9 1 6 -7 -2 -7 8 -25 23 -40 15 -14
32 -35 38 -47 6 -11 24 -26 41 -34 16 -7 30 -16 30 -19 0 -4 13 -9 29 -12 16
-4 41 -18 55 -32 14 -14 34 -25 46 -25 11 0 20 -5 20 -12 0 -6 3 -8 7 -5 3 4
-13 26 -35 49 -23 23 -42 48 -42 55 0 8 -7 13 -16 11 -10 -2 -19 3 -21 10 -3
6 1 12 7 12 10 0 9 4 0 15 -7 9 -11 18 -8 20 7 7 63 -22 78 -40 9 -10 24 -13
57 -8 39 5 45 4 50 -16 5 -20 31 -27 86 -23 9 1 17 -3 17 -8 0 -6 16 -10 35
-10 19 0 35 5 35 10 0 30 99 -8 202 -77 20 -14 41 -22 47 -19 5 3 12 0 14 -6
4 -10 6 -10 6 0 2 22 31 13 31 -10 0 -13 7 -31 14 -41 13 -17 15 -16 34 7 17
22 21 24 32 11 7 -8 18 -15 24 -15 12 -1 66 -45 66 -55 0 -15 -62 -2 -95 21
l-37 25 7 -48 c8 -56 17 -64 57 -53 15 5 26 5 23 1 -2 -5 8 -11 23 -14 28 -5
54 15 27 21 -22 5 -18 22 4 22 19 0 61 -58 61 -86 0 -8 4 -14 10 -14 15 0 47
-79 54 -130 3 -25 14 -62 25 -82 10 -21 26 -56 35 -79 11 -27 21 -39 30 -36
15 6 25 -20 26 -68 1 -33 29 -93 30 -62 0 9 4 17 9 17 16 0 28 -25 35 -72 6
-36 4 -48 -6 -48 -7 -1 -3 -9 10 -20 21 -17 24 -28 24 -100 0 -51 3 -78 10
-74 6 4 9 -7 7 -28 -2 -18 0 -39 4 -45 9 -14 11 -279 2 -292 -3 -5 -9 -55 -14
-110 -4 -56 -11 -104 -14 -108 -13 -12 -47 42 -46 72 2 40 -11 86 -22 79 -5
-3 -9 7 -10 23 0 15 -3 22 -6 16 -7 -18 -23 -16 -23 2 0 8 -7 15 -15 15 -8 0
-15 5 -15 10 0 6 5 10 10 10 6 0 10 5 10 10 0 6 -4 9 -8 8 -5 -2 -28 17 -51
41 -36 38 -46 43 -59 33 -10 -7 -24 -15 -34 -18 -20 -7 -29 -39 -16 -52 22
-22 -3 -31 -35 -13 -29 17 -92 23 -222 23 -69 1 -215 -35 -231 -56 -6 -8 -31
-18 -55 -22 -24 -3 -69 -20 -99 -38 -30 -18 -66 -38 -80 -44 -14 -7 -35 -27
-47 -45 -19 -28 -21 -38 -13 -67 5 -19 6 -37 2 -41 -4 -3 -34 -11 -67 -18 -33
-6 -68 -20 -79 -30 -19 -19 -18 -20 18 -35 28 -12 36 -20 32 -33 -10 -33 9
-43 100 -53 155 -16 168 -18 199 -25 29 -7 29 -7 10 9 -19 15 -14 16 65 15 47
0 98 5 115 12 17 7 35 11 42 10 6 -1 14 3 18 9 9 14 45 13 45 -2 1 -7 10 -2
21 11 25 31 86 33 124 3 17 -13 21 -22 13 -25 -7 -2 1 -1 17 2 90 17 250 -11
296 -52 45 -40 63 -47 90 -34 27 14 37 42 38 110 1 34 8 58 25 80 33 45 52 86
60 130 5 28 12 37 26 37 11 0 20 6 20 14 0 7 11 38 24 67 13 30 27 70 31 89 4
19 12 41 19 49 6 8 11 27 12 43 2 30 29 68 49 68 6 0 17 11 23 25 6 13 23 27
37 31 20 5 28 16 36 50 8 31 17 44 28 44 29 0 57 42 71 105 7 33 19 75 27 92
11 25 11 38 2 54 -7 14 -9 53 -5 118 17 247 17 280 6 346 -13 79 -53 235 -79
310 -13 39 -16 74 -13 163 2 66 8 110 13 106 11 -7 41 59 35 78 -2 7 -7 28
-10 45 -5 30 -4 32 14 21 10 -7 22 -23 25 -37 5 -18 9 -21 14 -12 6 9 10 4 14
-15 3 -16 15 -65 25 -109 11 -44 22 -91 25 -105 2 -14 2 2 -1 35 -3 33 -6 86
-6 117 -1 40 -7 65 -22 85 -11 15 -28 63 -38 106 -10 42 -27 88 -37 101 -11
14 -22 39 -25 58 -8 39 -36 90 -78 138 -54 62 -70 110 -60 182 l9 63 31 -32
c32 -34 44 -34 44 -1 0 20 -40 89 -72 122 -27 29 -121 173 -140 216 -9 19 -19
50 -23 69 -4 19 -20 45 -35 58 -16 13 -37 39 -49 58 l-20 35 1699 0 1700 0 0
105 0 105 -5850 0 -5850 0 0 -105z m8667 -1357 c-3 -8 -6 -5 -6 6 -1 11 2 17
5 13 3 -3 4 -12 1 -19z m-1448 -104 c3 -2 0 -9 -6 -15 -15 -15 -53 -2 -53 18
0 12 6 14 27 8 16 -4 30 -9 32 -11z m-175 -19 c3 -8 1 -15 -4 -15 -6 0 -10 7
-10 15 0 8 2 15 4 15 2 0 6 -7 10 -15z m-4076 -1850 c-3 -3 -9 2 -12 12 -6 14
-5 15 5 6 7 -7 10 -15 7 -18z m552 -452 c0 -38 0 -38 -14 -13 -8 16 -9 29 -3
38 15 19 17 15 17 -25z m-320 -520 c-11 -17 -11 -17 -6 0 3 10 7 26 7 35 1 15
2 15 6 0 2 -10 -1 -25 -7 -35z m19 -78 c0 -5 -6 -1 -14 9 -8 11 -15 27 -15 35
1 17 29 -26 29 -44z m-235 -31 c23 -9 19 -24 -6 -25 l-23 -2 23 -4 c14 -3 22
-12 22 -24 0 -15 -6 -20 -22 -17 -19 2 -24 10 -26 41 -3 37 2 42 32 31z m694
-122 c2 -7 -3 -12 -12 -12 -9 0 -16 7 -16 16 0 17 22 14 28 -4z m169 -1374
c-3 -7 -5 -2 -5 12 0 14 2 19 5 13 2 -7 2 -19 0 -25z m70 -140 c-3 -8 -6 -5
-6 6 -1 11 2 17 5 13 3 -3 4 -12 1 -19z m-87 -1178 c0 -5 -2 -10 -4 -10 -3 0
-8 5 -11 10 -3 6 -1 10 4 10 6 0 11 -4 11 -10z m930 -595 c0 -8 -6 -15 -14
-15 -17 0 -28 14 -19 24 12 12 33 6 33 -9z"/>
<path d="M6280 14616 c0 -8 5 -18 10 -21 6 -3 10 3 10 14 0 12 -4 21 -10 21
-5 0 -10 -6 -10 -14z"/>
<path d="M5335 14220 c3 -5 13 -10 21 -10 8 0 14 5 14 10 0 6 -9 10 -21 10
-11 0 -17 -4 -14 -10z"/>
<path d="M5240 13610 c0 -5 7 -10 16 -10 8 0 12 5 9 10 -3 6 -10 10 -16 10 -5
0 -9 -4 -9 -10z"/>
<path d="M4994 13378 c-3 -4 -15 -6 -28 -2 -14 3 -27 -1 -35 -10 -8 -9 -22
-16 -32 -16 -26 0 -71 -21 -90 -42 -9 -10 -23 -18 -31 -18 -8 0 -23 -9 -33
-20 -10 -11 -32 -27 -49 -36 -17 -9 -44 -23 -59 -31 -16 -8 -32 -25 -37 -38
-9 -25 -40 -42 -40 -22 0 7 -9 -3 -20 -20 -11 -18 -27 -33 -35 -33 -13 0 -16
6 -15 38 0 4 10 7 23 7 16 0 23 7 25 24 3 20 0 23 -18 18 -14 -4 -25 1 -33 14
-18 29 -122 23 -110 -6 3 -9 -7 -17 -29 -23 -30 -7 -33 -11 -30 -40 3 -30 1
-32 -27 -32 -35 0 -47 -13 -26 -30 21 -17 9 -30 -26 -30 -20 0 -29 -4 -26 -12
2 -8 21 -13 45 -13 22 0 47 -6 54 -14 11 -11 9 -12 -11 -6 -13 4 -50 1 -83 -5
-58 -13 -60 -14 -56 -42 3 -15 2 -28 -1 -28 -3 0 -6 -11 -6 -23 0 -18 5 -23
18 -19 12 3 17 -2 17 -17 0 -11 5 -21 10 -21 6 0 10 -19 10 -42 1 -41 1 -42
16 -23 8 11 13 31 10 45 -3 14 -3 19 0 12 5 -10 10 -9 25 4 28 25 84 43 159
49 82 8 151 25 144 36 -3 5 8 9 25 9 16 0 32 4 35 9 3 4 31 11 62 14 37 4 60
12 69 23 9 13 25 17 51 16 148 -6 225 -13 264 -26 92 -29 196 -50 246 -47 27
1 72 -3 99 -9 55 -12 155 -68 155 -87 0 -19 -48 -27 -88 -14 -21 6 -66 13
-102 16 -36 2 -86 8 -112 11 -38 5 -48 4 -48 -8 0 -29 65 -77 130 -97 154 -45
217 -61 243 -61 16 0 26 -4 22 -10 -3 -5 12 -13 35 -16 23 -4 47 -13 55 -20
14 -14 80 -22 91 -12 3 4 -5 10 -19 13 -15 4 -31 13 -37 20 -15 18 41 31 69
16 11 -6 29 -11 41 -11 12 0 39 -9 59 -20 64 -34 224 -82 296 -88 91 -8 173
-7 182 1 3 4 -14 27 -40 52 -26 24 -42 47 -37 50 6 3 10 13 10 21 0 8 -4 13
-9 9 -6 -3 -13 1 -18 9 -7 13 -11 13 -27 0 -11 -8 -14 -14 -8 -14 7 0 12 -7
12 -15 0 -12 -5 -13 -27 -3 -50 21 -56 31 -48 87 7 49 25 72 25 31 0 -11 5
-20 10 -20 6 0 3 16 -6 38 -9 20 -20 55 -26 77 -5 22 -15 49 -23 61 -22 34
-94 103 -133 128 -20 13 -48 35 -61 50 -14 14 -30 26 -36 26 -7 0 -20 9 -30
20 -10 11 -30 20 -44 20 -37 0 -92 21 -125 48 -18 14 -42 22 -67 22 -20 0 -39
4 -41 9 -3 9 -275 53 -326 52 -18 -1 -31 3 -28 8 4 5 -11 15 -31 21 -21 7 -44
17 -50 23 -14 10 -128 37 -176 41 -16 1 -30 -1 -33 -6z m-605 -308 c4 0 8 -13
9 -30 3 -37 -4 -38 -35 -4 -24 26 -22 50 4 40 8 -3 18 -6 22 -6z m-69 -20 c0
-5 -4 -10 -10 -10 -5 0 -10 5 -10 10 0 6 5 10 10 10 6 0 10 -4 10 -10z m1367
-361 c-14 -8 -22 -8 -30 0 -8 8 -3 11 19 11 25 -1 27 -2 11 -11z"/>
<path d="M3866 13331 c-8 -12 3 -41 15 -41 13 0 11 18 -3 23 -10 4 -10 6 0 6
6 1 12 6 12 11 0 12 -17 13 -24 1z"/>
<path d="M8252 13020 c0 -19 2 -27 5 -17 2 9 2 25 0 35 -3 9 -5 1 -5 -18z"/>
<path d="M4940 12706 c0 -8 4 -17 8 -20 13 -8 35 11 28 23 -10 16 -36 14 -36
-3z"/>
<path d="M6400 12540 c0 -5 9 -10 20 -10 11 0 20 5 20 10 0 6 -9 10 -20 10
-11 0 -20 -4 -20 -10z"/>
<path d="M4973 12462 c-18 -2 -33 -7 -33 -11 0 -12 63 -20 75 -10 15 14 -6 25
-42 21z"/>
<path d="M4857 12362 c-4 -5 -37 -10 -73 -11 -36 0 -78 -7 -92 -15 -15 -8 -41
-21 -58 -29 -17 -8 -40 -28 -51 -43 -19 -28 -19 -30 -3 -59 9 -16 28 -36 42
-42 14 -7 33 -24 42 -38 14 -21 24 -25 62 -25 51 0 113 -28 153 -69 15 -15 32
-26 39 -23 6 2 22 -4 34 -12 12 -9 36 -16 53 -16 17 0 35 -4 41 -9 5 -5 32
-22 59 -37 67 -37 121 -46 175 -30 35 10 55 10 104 0 69 -14 89 -6 67 27 -11
19 -9 25 22 58 19 20 53 62 77 94 48 65 41 65 157 10 96 -45 108 -68 77 -141
-12 -30 -17 -34 -24 -21 -10 18 -76 17 -94 -2 -6 -5 -26 -9 -45 -10 -20 -1
-47 -5 -61 -9 -23 -7 -23 -8 -3 -9 12 -1 23 -6 25 -13 3 -7 30 -12 69 -14 92
-3 157 -14 170 -30 9 -11 4 -20 -20 -41 -38 -33 -39 -49 -6 -98 22 -31 25 -44
19 -82 -6 -42 -5 -44 25 -56 19 -7 31 -18 31 -29 0 -10 5 -18 10 -18 6 0 10 5
10 11 0 13 21 34 35 35 46 2 95 31 95 55 0 7 3 9 7 6 7 -8 43 47 43 67 0 7 8
24 19 37 10 13 16 30 14 37 -6 16 17 15 40 -3 11 -7 25 -11 32 -9 8 3 21 -6
30 -20 10 -14 25 -26 34 -26 13 0 16 -9 16 -35 -1 -31 0 -34 13 -22 8 8 15 26
15 40 1 14 4 23 6 21 9 -9 46 91 57 156 7 39 12 50 25 50 16 0 6 -99 -16 -165
-9 -27 -55 -126 -101 -220 -46 -93 -84 -178 -84 -187 0 -10 -4 -18 -10 -18 -5
0 -10 -6 -10 -13 0 -7 -9 -20 -19 -29 -11 -9 -46 -56 -79 -105 -92 -137 -240
-273 -394 -362 l-83 -48 2 -74 c1 -41 8 -94 17 -119 18 -54 12 -117 -13 -125
-10 -3 -25 -21 -34 -41 -10 -19 -22 -32 -27 -29 -6 3 -10 -3 -10 -13 0 -19 6
-20 112 -16 104 4 113 3 135 -17 12 -13 23 -29 23 -36 0 -7 11 -18 25 -23 14
-5 25 -14 25 -20 0 -5 7 -10 15 -10 8 0 23 -4 33 -9 9 -4 41 -19 69 -32 29
-13 53 -27 53 -30 0 -4 16 -10 36 -14 20 -3 46 -15 57 -26 11 -10 27 -19 34
-19 7 0 13 -4 13 -10 0 -18 32 -10 62 15 16 14 33 23 38 20 4 -3 10 3 12 13 7
24 84 62 140 69 26 3 67 0 93 -6 116 -29 128 79 24 224 -19 26 -28 48 -24 56
5 7 4 10 -3 5 -7 -4 -13 7 -18 29 -6 36 -8 37 -79 50 -16 3 -41 8 -55 11 -38
7 -129 4 -171 -5 -20 -5 -55 -23 -78 -41 -35 -28 -41 -39 -41 -70 0 -32 7 -43
49 -79 28 -23 63 -44 78 -47 16 -3 39 -13 52 -23 22 -17 22 -18 4 -39 -11 -14
-37 -25 -67 -31 -75 -14 -156 16 -223 81 l-51 51 0 78 c0 57 5 89 19 116 10
21 19 43 19 50 0 6 8 17 18 22 12 7 13 10 3 11 -11 0 -10 5 4 20 10 11 21 17
25 15 4 -3 11 2 14 11 3 8 10 13 15 10 5 -3 32 10 60 29 28 20 57 35 64 33 7
-1 48 6 91 16 53 12 96 16 128 12 26 -4 48 -3 47 1 -4 22 3 33 21 33 18 0 45
32 85 100 6 10 17 26 25 35 9 11 16 43 17 79 3 106 11 173 23 197 8 13 10 41
7 71 -5 36 -3 48 7 48 33 0 28 327 -6 365 -14 15 -9 45 11 66 10 11 21 33 23
49 4 27 1 30 -43 44 -26 9 -55 13 -63 10 -9 -4 -18 0 -22 9 -3 10 -15 14 -33
11 -23 -4 -32 2 -58 38 -16 24 -33 55 -36 69 -9 36 -71 125 -85 122 -7 -2 -12
3 -12 10 0 7 -9 18 -21 25 -12 8 -18 9 -14 3 3 -6 2 -11 -4 -11 -5 0 -12 9
-16 19 -5 18 -37 35 -62 32 -6 -1 -14 3 -17 8 -7 11 -45 3 -65 -13 -21 -17
-57 -78 -65 -111 -11 -48 -39 -95 -57 -95 -16 0 -73 57 -94 94 -6 10 -24 19
-40 20 -69 5 -171 31 -190 47 -11 10 -33 20 -50 24 -30 7 -140 41 -182 56 -13
5 -23 17 -23 27 0 12 -12 21 -42 29 -70 19 -165 34 -205 33 -21 -1 -83 2 -139
6 -66 4 -103 3 -107 -4z m563 -217 c0 -14 -4 -25 -10 -25 -5 0 -10 11 -10 25
0 14 5 25 10 25 6 0 10 -11 10 -25z m697 19 c22 -6 31 -21 39 -62 3 -17 -3
-29 -20 -43 -14 -11 -23 -26 -20 -33 6 -15 -51 -76 -71 -76 -19 0 -38 56 -32
93 3 17 14 53 26 80 21 48 31 53 78 41z m-1037 -40 c0 -8 5 -14 10 -14 6 0 10
-14 10 -32 l0 -32 -42 43 c-39 41 -40 45 -23 57 20 15 45 3 45 -22z m1220 -9
c7 -9 8 -15 2 -15 -5 0 -12 7 -16 15 -3 8 -4 15 -2 15 2 0 9 -7 16 -15z m-177
-237 c-3 -21 -11 -38 -17 -38 -12 0 -12 43 0 79 9 27 21 -4 17 -41z"/>
<path d="M6329 12243 c-3 -20 4 -49 13 -54 13 -8 47 -106 48 -136 0 -29 10
-53 22 -53 5 0 6 5 3 10 -7 12 -1 13 93 10 68 -2 72 -1 72 20 0 22 -35 59 -56
60 -17 0 -91 62 -118 98 -20 28 -25 31 -29 15 -4 -17 -5 -17 -6 1 -1 12 -6 16
-17 12 -12 -4 -15 -2 -10 9 3 8 1 15 -4 15 -6 0 -11 -3 -11 -7z"/>
<path d="M7277 12155 c-33 -7 -66 -20 -75 -30 -16 -16 -15 -17 8 -9 14 4 55
15 92 24 112 26 91 39 -25 15z"/>
<path d="M6607 12063 c-17 -16 -6 -43 16 -43 13 0 50 -9 82 -20 57 -20 126
-25 155 -12 19 9 24 46 8 59 -15 10 -191 1 -222 -12 -13 -6 -17 -5 -13 2 8 12
-17 36 -26 26z"/>
<path d="M4788 12029 c18 -19 15 -29 -8 -29 -11 0 -20 -4 -20 -9 0 -9 26 -23
35 -18 2 1 10 -6 17 -16 11 -14 24 -18 63 -15 47 3 79 28 35 28 -12 0 -18 -4
-15 -10 3 -5 1 -10 -4 -10 -6 0 -11 6 -11 14 0 8 -15 17 -34 20 -25 5 -36 13
-38 28 -2 12 -10 23 -18 26 -12 4 -13 2 -2 -9z"/>
<path d="M7273 12019 c-26 -6 -57 -25 -87 -53 -38 -35 -46 -49 -46 -78 0 -31
4 -36 32 -44 28 -8 34 -15 40 -53 11 -65 20 -71 109 -71 43 0 81 -4 84 -10 14
-22 35 -10 35 20 0 24 4 30 21 30 13 0 20 -6 18 -17 -5 -50 -2 -53 54 -49 47
4 55 8 86 45 l33 40 39 -19 c58 -30 109 -85 109 -119 0 -21 11 -36 43 -61 23
-19 46 -40 50 -47 5 -7 12 -11 18 -8 5 4 9 -1 9 -9 0 -11 10 -16 28 -17 15 0
35 -2 44 -4 59 -11 0 169 -67 205 -11 6 -29 24 -40 40 -11 17 -34 35 -52 40
-17 6 -34 17 -37 25 -3 10 -20 15 -45 15 -48 0 -73 9 -65 22 5 7 -8 8 -38 4
-34 -5 -48 -3 -58 9 -7 8 -20 15 -28 15 -28 0 -102 32 -102 44 0 7 5 17 12 24
6 6 13 21 15 32 2 15 -3 20 -21 20 -17 0 -27 -9 -36 -30 -14 -34 -25 -38 -34
-12 -11 29 -33 64 -48 73 -15 10 -19 10 -75 -2z"/>
<path d="M6995 11960 c-10 -11 -14 -20 -9 -20 5 0 15 9 22 20 7 11 11 20 9 20
-2 0 -12 -9 -22 -20z"/>
<path d="M6840 11863 c0 -19 47 -53 73 -53 15 0 27 -5 27 -10 0 -6 13 -1 30
12 l30 22 -38 13 c-53 18 -122 27 -122 16z"/>
<path d="M4031 11664 c0 -11 3 -14 6 -6 3 7 2 16 -1 19 -3 4 -6 -2 -5 -13z"/>
<path d="M4488 11642 c9 -6 12 -21 8 -43 -10 -69 71 -113 127 -69 59 47 15
104 -88 115 -38 4 -55 3 -47 -3z"/>
<path d="M8171 11596 c-9 -11 -9 -16 1 -22 18 -12 281 -80 398 -104 268 -54
280 -56 280 -35 0 10 7 15 18 13 12 -2 17 4 17 21 0 23 -4 24 -65 26 -82 3
-250 29 -277 43 -22 12 -127 34 -243 52 -41 6 -85 13 -96 15 -12 3 -27 -1 -33
-9z"/>
<path d="M6149 11588 c-1 -7 -2 -21 -2 -30 0 -10 -3 -18 -8 -18 -4 0 -10 -13
-14 -30 -8 -35 -22 -39 -27 -7 -2 14 -11 23 -25 25 -25 4 -30 -15 -14 -46 5
-9 12 -24 14 -33 5 -16 60 -31 83 -22 16 6 44 59 44 83 0 11 5 18 10 15 6 -4
10 6 9 22 0 27 -1 27 -9 6 -16 -39 -40 -21 -40 28 0 21 -19 27 -21 7z"/>
<path d="M4043 11474 c1 -62 5 -110 8 -108 4 2 6 -15 6 -37 0 -40 5 -54 46
-134 22 -44 73 -113 97 -132 13 -11 120 -72 143 -82 5 -2 4 6 -2 18 -7 11 -18
21 -26 21 -8 0 -15 6 -15 13 0 8 -10 19 -23 24 -36 16 -117 93 -144 137 -36
57 -73 188 -83 296 l-8 95 1 -111z"/>
<path d="M3640 11539 c0 -5 5 -7 10 -4 6 3 10 8 10 11 0 2 -4 4 -10 4 -5 0
-10 -5 -10 -11z"/>
<path d="M3773 11468 c-17 -21 -11 -103 7 -103 10 0 14 8 12 24 -3 28 24 74
38 66 6 -4 10 -1 10 4 0 6 -6 11 -14 11 -8 0 -21 2 -29 5 -7 3 -18 0 -24 -7z"/>
<path d="M6100 11411 c0 -5 5 -13 10 -16 6 -3 10 -2 10 4 0 5 -4 13 -10 16 -5
3 -10 2 -10 -4z"/>
<path d="M6038 11403 c6 -2 18 -2 25 0 6 3 1 5 -13 5 -14 0 -19 -2 -12 -5z"/>
<path d="M5867 11393 c-4 -3 -7 -19 -7 -35 0 -19 -5 -28 -16 -28 -20 0 -111
-95 -156 -163 -27 -40 -47 -55 -115 -88 -80 -39 -135 -88 -146 -129 -4 -16 3
-18 62 -17 36 0 80 -3 96 -7 17 -4 40 -9 53 -12 13 -3 20 -9 16 -16 -4 -6 8 0
25 13 24 18 31 30 28 47 -3 17 -1 22 9 18 8 -3 13 -2 11 3 -2 9 203 210 216
211 4 0 7 -5 7 -11 0 -5 -5 -7 -12 -3 -8 5 -9 2 -5 -10 4 -9 3 -14 -2 -11 -5
3 -12 -3 -16 -14 -8 -25 -134 -157 -147 -153 -5 1 -7 -2 -3 -8 3 -5 1 -10 -6
-10 -7 0 -10 -3 -6 -6 17 -17 264 227 251 247 -3 5 -11 9 -19 9 -9 0 -13 12
-12 40 2 37 8 45 30 41 5 -1 6 3 2 8 -3 6 -11 8 -19 5 -12 -5 -36 34 -36 60 0
20 -67 35 -83 19z"/>
<path d="M2603 11218 c0 -63 8 -85 21 -55 3 7 5 6 3 -3 -2 -15 37 -78 58 -92
6 -5 6 -8 -2 -8 -7 0 -13 -4 -13 -10 0 -5 3 -9 8 -8 17 3 42 -16 42 -33 0 -12
5 -16 15 -12 10 3 15 1 13 -7 -2 -7 11 -21 29 -31 32 -18 32 -18 39 4 5 12 8
25 9 29 0 3 3 10 8 14 21 21 -17 95 -42 80 -14 -9 -49 10 -86 48 -16 17 -44
43 -62 58 -21 17 -33 37 -36 59 -2 19 -4 4 -4 -33z"/>
<path d="M4382 11138 c-17 -17 5 -48 33 -48 25 0 32 15 17 36 -11 17 -39 23
-50 12z"/>
<path d="M2611 11114 c0 -11 3 -14 6 -6 3 7 2 16 -1 19 -3 4 -6 -2 -5 -13z"/>
<path d="M1908 10983 c-7 -25 1 -43 18 -43 9 0 14 11 14 30 0 33 -24 42 -32
13z"/>
<path d="M2675 10958 c4 -13 12 -27 18 -33 7 -7 8 -4 3 8 -3 10 -6 25 -6 33 0
8 -5 14 -11 14 -6 0 -8 -9 -4 -22z"/>
<path d="M5204 10938 c-17 -4 -37 -15 -45 -24 -22 -26 8 -36 97 -30 80 5 134
20 134 39 0 6 -5 6 -12 0 -18 -14 -80 -25 -73 -13 3 6 19 10 36 10 18 0 29 5
29 14 0 11 -16 14 -67 13 -38 0 -82 -4 -99 -9z"/>
<path d="M2726 10855 c4 -8 8 -15 10 -15 2 0 4 7 4 15 0 8 -4 15 -10 15 -5 0
-7 -7 -4 -15z"/>
<path d="M4660 10856 c41 -17 79 -21 65 -7 -6 6 -30 13 -55 16 l-45 5 35 -14z"/>
<path d="M4078 10853 c-28 -7 -21 -20 13 -27 37 -7 50 -1 42 19 -5 15 -21 17
-55 8z"/>
<path d="M3960 10810 c0 -11 5 -20 10 -20 6 0 10 9 10 20 0 11 -4 20 -10 20
-5 0 -10 -9 -10 -20z"/>
<path d="M4050 10810 c0 -5 7 -10 16 -10 8 0 12 5 9 10 -3 6 -10 10 -16 10 -5
0 -9 -4 -9 -10z"/>
<path d="M7100 10771 c0 -5 6 -14 14 -20 11 -9 15 -8 20 5 9 23 8 24 -14 24
-11 0 -20 -4 -20 -9z"/>
<path d="M7150 10741 c0 -5 7 -14 15 -21 16 -14 18 -10 9 14 -6 17 -24 22 -24
7z"/>
<path d="M4200 10721 c0 -12 5 -21 10 -21 6 0 10 6 10 14 0 8 -4 18 -10 21 -5
3 -10 -3 -10 -14z"/>
<path d="M4131 10654 c0 -11 3 -14 6 -6 3 7 2 16 -1 19 -3 4 -6 -2 -5 -13z"/>
<path d="M7890 10657 c0 -12 -100 -54 -145 -61 -11 -2 -22 -5 -25 -6 -3 -1
-32 -2 -65 -1 -33 1 -66 -2 -73 -7 -16 -11 -143 4 -176 22 -21 11 -33 11 -51
2 -14 -6 -25 -13 -25 -16 1 -3 22 -18 48 -35 51 -33 55 -33 256 -25 86 3 114
8 132 23 13 10 38 20 55 22 18 2 35 8 38 12 3 4 18 14 32 22 15 7 32 24 38 37
10 22 8 24 -14 24 -14 0 -25 -6 -25 -13z"/>
<path d="M6925 10439 c-28 -23 -67 -53 -87 -67 -21 -13 -38 -33 -38 -43 0 -33
39 -43 156 -41 49 2 66 7 92 28 27 23 32 34 32 69 0 56 -30 95 -73 95 -23 0
-47 -12 -82 -41z"/>
<path d="M7645 10420 c-3 -5 -2 -10 4 -10 5 0 13 5 16 10 3 6 2 10 -4 10 -5 0
-13 -4 -16 -10z"/>
<path d="M4102 10210 c0 -14 2 -19 5 -12 2 6 2 18 0 25 -3 6 -5 1 -5 -13z"/>
<path d="M7034 10191 c4 -5 -2 -7 -12 -4 -9 2 -31 -3 -47 -11 -17 -9 -40 -16
-52 -16 -31 0 -73 -18 -73 -31 0 -6 9 -9 19 -6 12 3 22 -1 25 -9 3 -9 18 -13
40 -12 19 2 32 6 30 9 -5 9 18 17 34 12 6 -3 10 -9 6 -14 -3 -5 -1 -9 5 -9 6
0 13 11 17 25 3 13 12 29 20 36 19 15 18 39 -2 39 -8 0 -13 -4 -10 -9z"/>
<path d="M3970 10140 c0 -5 7 -7 15 -4 8 4 15 8 15 10 0 2 -7 4 -15 4 -8 0
-15 -4 -15 -10z"/>
<path d="M3922 9970 c0 -14 2 -19 5 -12 2 6 2 18 0 25 -3 6 -5 1 -5 -13z"/>
<path d="M3945 9977 c-4 -10 -5 -21 -1 -24 10 -10 18 4 13 24 -4 17 -4 17 -12
0z"/>
<path d="M5948 9670 c-9 -6 -51 -12 -95 -14 -43 -1 -98 -11 -123 -20 -92 -35
-195 -58 -239 -53 -25 3 -61 -1 -84 -9 -22 -8 -49 -14 -62 -14 -28 0 -73 -38
-76 -65 -1 -11 3 -32 9 -47 6 -15 9 -35 5 -45 -4 -11 -3 -14 5 -9 7 4 12 3 12
-1 0 -5 32 -7 70 -5 53 3 79 0 107 -13 21 -10 44 -18 53 -19 8 -1 25 -7 38
-14 19 -11 22 -19 17 -43 -9 -40 8 -59 48 -53 18 3 43 1 57 -5 18 -7 20 -10 8
-10 -10 -1 -18 -8 -18 -17 0 -8 5 -12 10 -9 6 3 10 1 10 -4 0 -6 -9 -11 -20
-11 -11 0 -20 -6 -20 -13 0 -8 -10 -18 -22 -24 l-21 -9 23 -22 c13 -12 34 -22
47 -22 13 0 26 -6 29 -14 3 -8 14 -16 25 -19 24 -6 27 28 3 37 -8 3 -13 10 -9
15 3 5 1 12 -5 16 -29 18 5 95 43 95 25 0 77 -28 77 -41 0 -7 9 -9 21 -6 12 3
32 -1 45 -10 22 -14 24 -14 31 3 4 10 25 37 46 60 34 36 43 41 58 31 14 -9 26
-9 48 0 20 7 44 8 68 3 21 -5 64 -11 96 -13 40 -3 68 -11 89 -27 24 -18 37
-21 71 -15 23 4 80 7 127 8 72 1 91 -2 123 -22 20 -13 37 -30 37 -38 0 -8 4
-12 10 -8 10 6 80 -58 80 -74 0 -6 11 -11 25 -11 25 0 29 9 25 58 -1 14 4 22
14 22 9 0 16 5 16 10 0 15 50 63 83 80 16 8 59 43 95 77 54 52 64 65 52 73 -8
5 -23 10 -32 10 -9 0 -21 6 -25 13 -4 6 -28 25 -53 42 -25 16 -57 39 -72 52
-21 16 -38 21 -68 18 -30 -3 -40 0 -40 11 0 18 -5 18 -36 -3 -22 -14 -27 -14
-35 -2 -7 12 -9 12 -10 -1 0 -10 -3 -8 -9 5 -5 11 -9 15 -9 8 -1 -7 -8 -10
-17 -6 -12 5 -13 7 -3 14 10 6 3 13 -23 24 -46 18 -97 19 -121 1 -23 -18 -95
-10 -122 13 -62 53 -123 68 -300 76 -44 2 -100 6 -125 9 -25 3 -52 1 -62 -4z
m397 -240 c3 -5 -3 -10 -14 -10 -12 0 -21 5 -21 10 0 6 6 10 14 10 8 0 18 -4
21 -10z"/>
<path d="M5965 9157 c-4 -10 -5 -21 -1 -24 10 -10 18 4 13 24 -4 17 -4 17 -12
0z"/>
<path d="M5835 9111 c-3 -17 -4 -35 -1 -40 3 -5 -1 -11 -9 -15 -25 -9 -16 -30
21 -48 l36 -17 -6 30 c-3 16 -1 29 4 29 9 0 8 58 -1 63 -2 2 -11 8 -21 15 -14
11 -17 9 -23 -17z"/>
<path d="M5775 9080 c3 -5 8 -10 11 -10 2 0 4 5 4 10 0 6 -5 10 -11 10 -5 0
-7 -4 -4 -10z"/>
<path d="M5945 9040 c-9 -17 -13 -36 -9 -42 5 -8 1 -9 -11 -4 -15 5 -16 4 -5
-9 16 -20 83 -37 113 -29 14 3 42 1 62 -5 21 -6 43 -7 49 -4 13 9 94 4 115 -7
9 -4 33 -13 54 -20 34 -10 41 -10 59 7 14 12 22 14 25 7 4 -13 38 -7 68 12 11
7 37 16 58 19 47 9 48 25 2 26 -47 2 -52 3 -61 12 -4 4 -17 7 -28 7 -44 0 -97
22 -105 42 -7 18 -9 19 -14 5 -3 -9 -21 -23 -39 -30 -35 -14 -27 -16 -180 28
-29 8 -72 15 -95 15 -37 0 -44 -4 -58 -30z"/>
<path d="M3376 8678 c-80 -44 -96 -56 -237 -173 -57 -48 -155 -122 -218 -164
-63 -42 -144 -96 -180 -120 -57 -38 -166 -124 -181 -142 -3 -4 -45 -41 -94
-83 -81 -69 -197 -137 -276 -161 -14 -5 -173 -9 -355 -9 -216 -1 -345 -6 -375
-13 -25 -7 -76 -19 -115 -28 -332 -77 -570 -143 -755 -211 -52 -20 -115 -41
-140 -48 -25 -7 -83 -29 -130 -49 -47 -19 -138 -57 -202 -83 l-118 -48 0
-3673 0 -3673 5850 0 5850 0 0 1278 0 1278 -35 135 c-103 389 -111 431 -130
645 -6 63 -4 79 20 138 40 101 94 291 110 391 19 117 19 298 0 428 -17 108
-21 125 -55 227 -12 36 -26 81 -31 100 -13 53 -65 203 -92 262 -13 29 -29 69
-37 88 -7 19 -19 42 -26 50 -6 8 -24 44 -39 79 -14 35 -33 73 -40 85 -24 37
-42 108 -65 251 -26 169 -36 222 -60 300 -29 92 -104 265 -137 315 -70 105
-102 158 -125 205 -63 128 -205 279 -321 343 -33 18 -95 58 -139 88 -62 44
-274 153 -433 224 -11 4 -90 42 -175 83 -85 41 -207 96 -270 122 -178 74 -383
165 -465 207 -22 11 -53 24 -70 28 -16 5 -68 25 -115 45 -47 20 -112 48 -144
62 -126 54 -375 140 -541 186 -11 3 -69 20 -130 37 -178 50 -207 58 -274 70
-39 7 -110 33 -177 66 -92 45 -128 69 -201 137 -103 96 -196 171 -310 251 -45
31 -101 74 -124 96 -47 44 -62 42 -98 -9 -24 -33 -23 -51 8 -181 29 -117 27
-214 -5 -320 -82 -270 -104 -436 -104 -801 0 -294 0 -293 -79 -258 -52 22 -54
22 -67 4 -8 -10 -14 -26 -15 -34 0 -9 -2 -25 -5 -36 -2 -11 -7 -68 -10 -126
-7 -118 7 -169 47 -169 26 0 69 -39 69 -62 0 -9 4 -19 9 -23 17 -10 25 -96 10
-106 -21 -13 -38 -129 -45 -299 -6 -171 -8 -184 -28 -177 -17 7 -24 -23 -32
-137 -5 -62 -3 -89 9 -116 l15 -35 3 35 c1 19 2 41 2 49 -1 9 2 10 10 2 16
-16 16 -203 0 -208 -9 -3 -13 6 -13 25 0 17 -6 32 -15 36 -10 4 -15 -1 -15
-14 0 -11 -7 -20 -15 -20 -9 0 -15 9 -15 25 0 14 -4 25 -8 25 -22 0 -32 -30
-33 -95 -1 -38 -5 -83 -9 -100 l-8 -30 -1 33 c-1 44 -23 38 -33 -9 -4 -19 -10
-79 -14 -134 -6 -76 -9 -92 -15 -67 -10 47 -19 52 -12 7 4 -25 3 -36 -4 -32
-7 4 -9 -12 -8 -46 2 -28 8 -149 14 -267 5 -118 15 -240 22 -270 8 -38 10
-133 6 -310 -5 -242 -13 -341 -53 -590 -8 -52 -15 -112 -14 -133 0 -22 -7 -52
-18 -70 -18 -30 -24 -74 -37 -272 -3 -49 -6 -56 -15 -50 -7 4 -8 -7 -4 -33 3
-23 2 -48 -5 -58 -6 -11 -11 -13 -11 -6 0 6 -5 12 -11 12 -6 0 -9 -7 -5 -15 3
-8 1 -15 -5 -15 -6 0 -10 -50 -10 -132 -1 -169 -7 -238 -23 -238 -7 0 -18 10
-24 23 -8 17 -11 -2 -13 -93 -1 -63 -3 -173 -5 -245 -2 -81 1 -134 8 -142 14
-18 5 -190 -15 -273 -9 -36 -19 -85 -22 -110 -5 -38 -9 -46 -28 -48 -32 -2
-46 44 -41 137 4 71 3 73 -14 57 -22 -19 -51 -21 -58 -3 -4 12 -9 44 -13 85
-2 19 -38 -3 -46 -29 -10 -30 -15 -19 -21 42 -3 29 -7 55 -10 58 -9 9 -23 -15
-32 -56 -9 -38 -7 -45 17 -72 15 -16 39 -35 54 -40 23 -9 27 -16 25 -42 -2
-24 -11 -37 -34 -51 -24 -14 -35 -30 -44 -66 -6 -26 -16 -52 -22 -59 -5 -7
-10 -32 -11 -57 -1 -24 -4 -44 -7 -44 -20 1 -32 -5 -55 -27 -22 -23 -25 -35
-25 -91 0 -43 -6 -77 -19 -102 -10 -20 -24 -62 -30 -92 -7 -30 -21 -71 -31
-90 -15 -28 -18 -57 -18 -143 0 -67 -4 -113 -11 -120 -8 -8 -11 -7 -11 3 0 37
-11 -9 -30 -130 -25 -150 -22 -224 10 -275 11 -18 20 -42 20 -53 0 -11 4 -22
9 -24 6 -2 6 -18 2 -38 -5 -24 -9 -31 -15 -21 -12 19 -27 -7 -20 -36 3 -12 -4
-43 -18 -72 -22 -48 -25 -51 -60 -51 -45 0 -52 11 -96 150 -81 256 -129 642
-107 855 4 33 -3 181 -14 330 -11 149 -25 338 -31 420 -6 83 -17 202 -25 265
-7 63 -16 156 -20 205 -13 196 -65 575 -78 575 -6 0 -7 -23 -3 -58 8 -78 24
-374 30 -555 3 -81 8 -153 12 -158 10 -17 6 -219 -5 -232 -5 -7 -11 -29 -13
-50 -4 -46 -19 -52 -30 -12 -27 91 -48 180 -58 255 -7 47 -29 155 -50 240 -21
85 -46 198 -55 250 -30 170 -181 750 -235 905 -12 33 -32 103 -45 155 -13 52
-40 147 -60 210 -64 204 -145 483 -166 575 -5 22 -17 69 -28 105 -10 36 -46
166 -79 290 -34 124 -71 259 -82 300 -12 41 -30 120 -40 175 -21 114 -53 220
-134 450 -31 88 -66 192 -77 230 -11 39 -27 84 -34 100 -25 55 -117 279 -130
316 -7 20 -38 90 -68 155 -31 65 -90 207 -132 314 -42 107 -90 224 -107 260
-27 57 -48 118 -77 235 -5 17 -22 61 -40 99 -17 38 -36 86 -41 107 -6 22 -14
39 -19 39 -25 0 -160 368 -202 549 -21 96 -15 234 15 336 60 198 72 253 60
264 -5 4 -40 -9 -78 -31z m2804 -7074 c0 -8 -5 -12 -10 -9 -6 4 -8 11 -5 16 9
14 15 11 15 -7z m-20 -75 c-10 -36 -17 -45 -26 -36 -8 8 18 77 27 71 4 -2 3
-18 -1 -35z m119 -116 c0 -10 -4 -27 -8 -38 -8 -19 -8 -19 -18 0 -8 13 -8 24
0 37 15 23 27 23 26 1z"/>
<path d="M5633 7153 c-14 -5 -18 -23 -5 -23 5 0 17 7 28 15 14 11 15 14 4 14
-8 0 -21 -3 -27 -6z"/>
<path d="M5340 7042 c0 -5 7 -9 15 -9 8 0 15 4 15 9 0 4 -7 8 -15 8 -8 0 -15
-4 -15 -8z"/>
<path d="M5150 7029 c0 -5 7 -9 15 -9 24 0 17 -17 -10 -24 -35 -9 -31 -45 5
-58 10 -4 6 -8 -12 -13 -23 -6 -28 -13 -28 -37 0 -23 4 -29 15 -24 20 7 19 -8
-1 -28 -8 -9 -11 -16 -5 -16 6 0 11 -7 11 -15 0 -8 -6 -12 -14 -9 -7 3 -16 -2
-20 -11 -4 -11 -12 -14 -26 -10 -45 14 -89 -37 -95 -114 -4 -43 -1 -52 17 -66
13 -8 29 -15 38 -15 13 0 13 2 0 11 -11 8 -6 9 21 6 38 -6 79 13 79 36 1 7 9
30 20 52 11 22 19 48 20 59 0 10 14 43 31 72 17 30 27 58 24 64 -4 6 -2 9 3 8
11 -3 62 66 62 82 0 6 5 10 10 10 6 0 10 5 10 10 0 6 -7 10 -15 10 -8 0 -15 4
-15 9 0 5 -10 13 -21 16 -36 12 -119 15 -119 4z m16 -136 c-6 -15 -9 -15 -16
-3 -6 9 -5 17 3 22 16 10 21 2 13 -19z m14 -101 c0 -7 -4 -10 -10 -7 -5 3 -10
16 -10 28 0 18 2 19 10 7 5 -8 10 -21 10 -28z"/>
<path d="M6770 6296 c0 -9 5 -16 10 -16 6 0 10 4 10 9 0 6 -4 13 -10 16 -5 3
-10 -1 -10 -9z"/>
<path d="M5150 6275 c0 -8 5 -15 10 -15 6 0 10 7 10 15 0 8 -4 15 -10 15 -5 0
-10 -7 -10 -15z"/>
<path d="M5150 6211 c0 -29 15 -33 16 -5 1 13 -2 24 -7 24 -5 0 -9 -9 -9 -19z"/>
<path d="M5150 5935 c-1 -22 -4 -59 -6 -82 -2 -25 1 -43 7 -43 5 0 10 -19 10
-42 -1 -71 4 -108 12 -108 5 0 7 -8 5 -17 -1 -10 1 -23 5 -30 4 -7 10 -54 12
-105 2 -53 8 -94 14 -96 6 -2 11 -12 11 -23 0 -10 6 -19 14 -19 8 0 19 -20 26
-47 18 -67 25 -70 43 -21 30 79 33 158 7 240 -13 40 -29 80 -37 89 -7 8 -20
47 -29 85 -9 38 -22 74 -29 79 -7 6 -15 35 -19 65 -7 56 -24 101 -27 70 -1 -8
-5 -1 -9 15 -7 29 -8 29 -10 -10z m40 -83 c0 -15 -2 -15 -10 -2 -13 20 -13 33
0 25 6 -3 10 -14 10 -23z"/>
<path d="M5341 2924 c0 -11 3 -14 6 -6 3 7 2 16 -1 19 -3 4 -6 -2 -5 -13z"/>
<path d="M6423 2903 c1 -30 4 -38 10 -28 5 9 4 27 -1 43 -9 25 -10 23 -9 -15z"/>
<path d="M5956 1474 c-2 -6 -2 -15 1 -18 7 -6 33 12 33 24 0 12 -29 7 -34 -6z"/>
</g>
</svg>
